<?xml version="1.0" encoding="UTF-8" standalone="no"?>
<!DOCTYPE svg PUBLIC "-//W3C//DTD SVG 1.0//EN"
 "http://www.w3.org/TR/2001/REC-SVG-20010904/DTD/svg10.dtd" [
 <!ATTLIST svg xmlns:xlink CDATA #FIXED "http://www.w3.org/1999/xlink">
]>
<!-- Generated by Graphviz version 2.20.3 (Wed Oct &#160;8 06:02:12 UTC 2008)
     For user: jwisniewski -->
<!-- Title: pf_tree_after Pages: 1 -->
<svg width="350pt" height="332pt"
 viewBox="0.00 0.00 350.00 332.00" xmlns="http://www.w3.org/2000/svg" xmlns:xlink="http://www.w3.org/1999/xlink">
<g id="graph0" class="graph" transform="scale(1 1) rotate(0) translate(4 328)">
<title>pf_tree_after</title>
<polygon style="fill:white;stroke:white;" points="-4,4 -4,-328 346,-328 346,4 -4,4"/>
<!-- xs -->
<g id="node1" class="node"><title>xs</title>
<text text-anchor="middle" x="126" y="-301.4" style="font-family:Times New Roman;font-size:14.00;">xs</text>
</g>
<!-- d -->
<g id="node3" class="node"><title>d</title>
<ellipse style="fill:none;stroke:black;" cx="126" cy="-234" rx="27" ry="18"/>
<text text-anchor="middle" x="126" y="-229.4" style="font-family:Times New Roman;font-size:14.00;">d</text>
</g>
<!-- xs&#45;&gt;d -->
<g id="edge2" class="edge"><title>xs&#45;&gt;d</title>
<path style="fill:none;stroke:black;" d="M126,-288C126,-280 126,-271 126,-262"/>
<polygon style="fill:black;stroke:black;" points="129.5,-262 126,-252 122.5,-262 129.5,-262"/>
</g>
<!-- b -->
<g id="node5" class="node"><title>b</title>
<ellipse style="fill:none;stroke:black;" cx="93" cy="-162" rx="27" ry="18"/>
<text text-anchor="middle" x="93" y="-157.4" style="font-family:Times New Roman;font-size:14.00;">b</text>
</g>
<!-- d&#45;&gt;b -->
<g id="edge4" class="edge"><title>d&#45;&gt;b</title>
<path style="fill:none;stroke:black;" d="M111,-219C103,-211 99,-200 97,-190"/>
<polygon style="fill:black;stroke:black;" points="100.393,-189.119 95,-180 93.5292,-190.492 100.393,-189.119"/>
</g>
<!-- g -->
<g id="node7" class="node"><title>g</title>
<ellipse style="fill:none;stroke:black;" cx="186" cy="-162" rx="27" ry="18"/>
<text text-anchor="middle" x="186" y="-157.4" style="font-family:Times New Roman;font-size:14.00;">g</text>
</g>
<!-- d&#45;&gt;g -->
<g id="edge6" class="edge"><title>d&#45;&gt;g</title>
<path style="fill:none;stroke:black;" d="M141,-219C151,-209 161,-197 169,-187"/>
<polygon style="fill:black;stroke:black;" points="171.8,-189.1 175,-179 166.2,-184.9 171.8,-189.1"/>
</g>
<!-- a -->
<g id="node9" class="node"><title>a</title>
<ellipse style="fill:none;stroke:black;" cx="27" cy="-90" rx="27" ry="18"/>
<text text-anchor="middle" x="27" y="-85.4" style="font-family:Times New Roman;font-size:14.00;">a</text>
</g>
<!-- b&#45;&gt;a -->
<g id="edge8" class="edge"><title>b&#45;&gt;a</title>
<path style="fill:none;stroke:black;" d="M78,-147C68,-136 57,-124 48,-114"/>
<polygon style="fill:black;stroke:black;" points="50.2191,-111.221 41,-106 44.9511,-115.831 50.2191,-111.221"/>
</g>
<!-- c -->
<g id="node11" class="node"><title>c</title>
<ellipse style="fill:none;stroke:black;" cx="99" cy="-90" rx="27" ry="18"/>
<text text-anchor="middle" x="99" y="-85.4" style="font-family:Times New Roman;font-size:14.00;">c</text>
</g>
<!-- b&#45;&gt;c -->
<g id="edge10" class="edge"><title>b&#45;&gt;c</title>
<path style="fill:none;stroke:black;" d="M108,-147C116,-139 116,-127 113,-117"/>
<polygon style="fill:black;stroke:black;" points="115.964,-114.985 109,-107 109.464,-117.585 115.964,-114.985"/>
</g>
<!-- f -->
<g id="node13" class="node"><title>f</title>
<ellipse style="fill:none;stroke:black;" cx="171" cy="-90" rx="27" ry="18"/>
<text text-anchor="middle" x="171" y="-85.4" style="font-family:Times New Roman;font-size:14.00;">f</text>
</g>
<!-- g&#45;&gt;f -->
<g id="edge12" class="edge"><title>g&#45;&gt;f</title>
<path style="fill:none;stroke:black;" d="M171,-147C164,-140 163,-128 164,-118"/>
<polygon style="fill:black;stroke:black;" points="167.488,-118.299 165,-108 160.522,-117.602 167.488,-118.299"/>
</g>
<!-- h -->
<g id="node15" class="node"><title>h</title>
<ellipse style="fill:none;stroke:black;" cx="315" cy="-90" rx="27" ry="18"/>
<text text-anchor="middle" x="315" y="-85.4" style="font-family:Times New Roman;font-size:14.00;">h</text>
</g>
<!-- g&#45;&gt;h -->
<g id="edge14" class="edge"><title>g&#45;&gt;h</title>
<path style="fill:none;stroke:black;" d="M201,-147C202,-146 250,-122 284,-105"/>
<polygon style="fill:black;stroke:black;" points="285.283,-108.26 293,-101 282.44,-101.863 285.283,-108.26"/>
</g>
<!-- ys -->
<g id="node16" class="node"><title>ys</title>
<text text-anchor="middle" x="234" y="-301.4" style="font-family:Times New Roman;font-size:14.00;fill:blue;">ys</text>
</g>
<!-- d&#39; -->
<g id="node18" class="node"><title>d&#39;</title>
<ellipse style="fill:none;stroke:blue;" cx="234" cy="-234" rx="27" ry="18"/>
<text text-anchor="middle" x="234" y="-229.4" style="font-family:Times New Roman;font-size:14.00;fill:blue;">d&#39;</text>
</g>
<!-- ys&#45;&gt;d&#39; -->
<g id="edge16" class="edge"><title>ys&#45;&gt;d&#39;</title>
<path style="fill:none;stroke:blue;" d="M234,-288C234,-280 234,-271 234,-262"/>
<polygon style="fill:blue;stroke:blue;" points="237.5,-262 234,-252 230.5,-262 237.5,-262"/>
</g>
<!-- d&#39;&#45;&gt;b -->
<g id="edge18" class="edge"><title>d&#39;&#45;&gt;b</title>
<path style="fill:none;stroke:blue;" d="M219,-219C205,-205 159,-186 127,-174"/>
<polygon style="fill:blue;stroke:blue;" points="127.585,-170.464 117,-170 124.985,-176.964 127.585,-170.464"/>
</g>
<!-- g&#39; -->
<g id="node21" class="node"><title>g&#39;</title>
<ellipse style="fill:none;stroke:blue;" cx="258" cy="-162" rx="27" ry="18"/>
<text text-anchor="middle" x="258" y="-157.4" style="font-family:Times New Roman;font-size:14.00;fill:blue;">g&#39;</text>
</g>
<!-- d&#39;&#45;&gt;g&#39; -->
<g id="edge20" class="edge"><title>d&#39;&#45;&gt;g&#39;</title>
<path style="fill:none;stroke:blue;" d="M249,-219C256,-212 259,-201 261,-190"/>
<polygon style="fill:blue;stroke:blue;" points="264.5,-190 261,-180 257.5,-190 264.5,-190"/>
</g>
<!-- g&#39;&#45;&gt;h -->
<g id="edge24" class="edge"><title>g&#39;&#45;&gt;h</title>
<path style="fill:none;stroke:blue;" d="M273,-147C283,-137 292,-125 299,-115"/>
<polygon style="fill:blue;stroke:blue;" points="301.8,-117.1 305,-107 296.2,-112.9 301.8,-117.1"/>
</g>
<!-- f&#39; -->
<g id="node23" class="node"><title>f&#39;</title>
<ellipse style="fill:none;stroke:blue;" cx="243" cy="-90" rx="27" ry="18"/>
<text text-anchor="middle" x="243" y="-85.4" style="font-family:Times New Roman;font-size:14.00;fill:blue;">f&#39;</text>
</g>
<!-- g&#39;&#45;&gt;f&#39; -->
<g id="edge22" class="edge"><title>g&#39;&#45;&gt;f&#39;</title>
<path style="fill:none;stroke:blue;" d="M243,-147C236,-140 235,-128 236,-118"/>
<polygon style="fill:blue;stroke:blue;" points="239.488,-118.299 237,-108 232.522,-117.602 239.488,-118.299"/>
</g>
<!-- e -->
<g id="node26" class="node"><title>e</title>
<ellipse style="fill:none;stroke:blue;" cx="228" cy="-18" rx="27" ry="18"/>
<text text-anchor="middle" x="228" y="-13.4" style="font-family:Times New Roman;font-size:14.00;fill:blue;">e</text>
</g>
<!-- f&#39;&#45;&gt;e -->
<g id="edge26" class="edge"><title>f&#39;&#45;&gt;e</title>
<path style="fill:none;stroke:blue;" d="M228,-75C221,-68 220,-56 221,-46"/>
<polygon style="fill:blue;stroke:blue;" points="224.488,-46.2987 222,-36 217.522,-45.6021 224.488,-46.2987"/>
</g>
</g>
</svg>
